<svg id="Layer_1" data-name="Layer 1" xmlns="http://www.w3.org/2000/svg" xmlns:xlink="http://www.w3.org/1999/xlink" viewBox="0 0 597.84 124.47"><defs><style>.cls-1{fill:#fff;}.cls-2{fill:url(#linear-gradient);}.cls-3{fill:url(#linear-gradient-2);}.cls-4{fill:url(#linear-gradient-3);}.cls-5{fill:url(#linear-gradient-4);}.cls-6{fill:url(#linear-gradient-5);}.cls-7{fill:url(#linear-gradient-6);}.cls-8{fill:none;}.cls-9{fill:url(#linear-gradient-7);}.cls-10{fill:url(#linear-gradient-8);}.cls-11{fill:url(#radial-gradient);}.cls-12{fill:url(#linear-gradient-9);}.cls-13{fill:url(#linear-gradient-10);}.cls-14{fill:url(#linear-gradient-11);}.cls-15{fill:url(#linear-gradient-12);}.cls-16{fill:url(#linear-gradient-13);}.cls-17{fill:url(#linear-gradient-14);}.cls-18{fill:url(#linear-gradient-15);}.cls-19{fill:url(#linear-gradient-16);}.cls-20{fill:url(#linear-gradient-17);}.cls-21{fill:url(#linear-gradient-18);}.cls-22{fill:url(#linear-gradient-19);}.cls-23{fill:url(#linear-gradient-20);}.cls-24{fill:url(#linear-gradient-21);}.cls-25{fill:url(#linear-gradient-22);}.cls-26{fill:url(#linear-gradient-23);}.cls-27{fill:url(#linear-gradient-24);}.cls-28{fill:url(#linear-gradient-25);}</style><linearGradient id="linear-gradient" x1="170.88" y1="18.78" x2="160.39" y2="29.57" gradientUnits="userSpaceOnUse"><stop offset="0" stop-color="#00aced"/><stop offset="0.25" stop-color="#04a5e6"/><stop offset="0.62" stop-color="#0e90d3"/><stop offset="1" stop-color="#1b75ba"/></linearGradient><linearGradient id="linear-gradient-2" x1="151.94" y1="40.12" x2="121.85" y2="50.61" xlink:href="#linear-gradient"/><linearGradient id="linear-gradient-3" x1="179.64" y1="36.02" x2="167.27" y2="34.23" xlink:href="#linear-gradient"/><linearGradient id="linear-gradient-4" x1="180.87" y1="46.18" x2="166.82" y2="43.21" xlink:href="#linear-gradient"/><linearGradient id="linear-gradient-5" x1="161.09" y1="35.54" x2="152.48" y2="40.1" xlink:href="#linear-gradient"/><linearGradient id="linear-gradient-6" x1="99.27" y1="55.95" x2="152.12" y2="45.06" gradientUnits="userSpaceOnUse"><stop offset="0" stop-color="#00aced"/><stop offset="1" stop-color="#1b75ba"/></linearGradient><linearGradient id="linear-gradient-7" x1="4.88" y1="73.16" x2="24.94" y2="42.77" xlink:href="#linear-gradient-6"/><linearGradient id="linear-gradient-8" x1="59.43" y1="17.2" x2="18.72" y2="107.67" xlink:href="#linear-gradient-6"/><radialGradient id="radial-gradient" cx="23.23" cy="64.67" r="22.61" gradientUnits="userSpaceOnUse"><stop offset="0" stop-color="#00aced"/><stop offset="0.4" stop-color="#01aaeb"/><stop offset="0.61" stop-color="#05a2e3"/><stop offset="0.78" stop-color="#0c94d7"/><stop offset="0.93" stop-color="#1581c5"/><stop offset="1" stop-color="#1b75ba"/></radialGradient><linearGradient id="linear-gradient-9" x1="179.55" y1="65.77" x2="202.02" y2="65.77" xlink:href="#linear-gradient-6"/><linearGradient id="linear-gradient-10" x1="204.94" y1="65.77" x2="211.84" y2="65.77" xlink:href="#linear-gradient-6"/><linearGradient id="linear-gradient-11" x1="214.01" y1="65.77" x2="237.58" y2="65.77" xlink:href="#linear-gradient-6"/><linearGradient id="linear-gradient-12" x1="241.89" y1="65.77" x2="248.8" y2="65.77" xlink:href="#linear-gradient-6"/><linearGradient id="linear-gradient-13" x1="252.21" y1="65.77" x2="274.28" y2="65.77" xlink:href="#linear-gradient-6"/><linearGradient id="linear-gradient-14" x1="272.74" y1="65.77" x2="298.93" y2="65.77" xlink:href="#linear-gradient-6"/><linearGradient id="linear-gradient-15" x1="301.9" y1="65.77" x2="321.03" y2="65.77" xlink:href="#linear-gradient-6"/><linearGradient id="linear-gradient-16" x1="330.93" y1="65.77" x2="357.12" y2="65.77" xlink:href="#linear-gradient-6"/><linearGradient id="linear-gradient-17" x1="358.66" y1="65.77" x2="382.23" y2="65.77" xlink:href="#linear-gradient-6"/><linearGradient id="linear-gradient-18" x1="386.54" y1="65.77" x2="406.24" y2="65.77" xlink:href="#linear-gradient-6"/><linearGradient id="linear-gradient-19" x1="410.52" y1="65.77" x2="432.25" y2="65.77" xlink:href="#linear-gradient-6"/><linearGradient id="linear-gradient-20" x1="434.42" y1="65.77" x2="457.69" y2="65.77" xlink:href="#linear-gradient-6"/><linearGradient id="linear-gradient-21" x1="456.6" y1="65.77" x2="480.99" y2="65.77" xlink:href="#linear-gradient-6"/><linearGradient id="linear-gradient-22" x1="489.61" y1="65.77" x2="511.37" y2="65.77" xlink:href="#linear-gradient-6"/><linearGradient id="linear-gradient-23" x1="511.3" y1="65.77" x2="537.49" y2="65.77" xlink:href="#linear-gradient-6"/><linearGradient id="linear-gradient-24" x1="540.45" y1="65.77" x2="562.63" y2="65.77" xlink:href="#linear-gradient-6"/><linearGradient id="linear-gradient-25" x1="566.38" y1="65.77" x2="588.3" y2="65.77" xlink:href="#linear-gradient-6"/></defs><title>flogo</title><path class="cls-1" d="M12.83,61.75v.49l.45-.49Z"/><path class="cls-2" d="M160.66,30.56a.82.82,0,0,0,.35-.23l7.9-8.4a.87.87,0,0,0,0-1.24.9.9,0,0,0-1.25,0l-7.9,8.39a.89.89,0,0,0,0,1.25A.87.87,0,0,0,160.66,30.56Z"/><path class="cls-3" d="M142.59,19.18c-6.54,6.21-16.21,15.16-30.26,22.94l7.15,20.8c15.92-2.51,29-1.42,38-.53Z"/><path class="cls-4" d="M173.51,31.76,163,35.39a.91.91,0,0,0-.55,1.13.89.89,0,0,0,1.13.55l10.55-3.63a.89.89,0,0,0-.58-1.68Z"/><path class="cls-5" d="M176.51,44l-11.39-1.76a.88.88,0,0,0-.27,1.73l11.39,1.75a.9.9,0,0,0,.43,0,.94.94,0,0,0,.59-.7A.9.9,0,0,0,176.51,44Z"/><path class="cls-6" d="M152.54,31.32l-5-14.55a1.84,1.84,0,0,0-2.34-1.14l-.16.06A1.83,1.83,0,0,0,143.9,18l15.3,44.47a1.83,1.83,0,0,0,2.33,1.14l.16-.06a1.83,1.83,0,0,0,1.14-2.33l-5-14.55c2.27-2,3.11-5.66,1.88-9.24S155.56,31.51,152.54,31.32Z"/><path class="cls-7" d="M112.08,42.27,119.19,63l.29,0-7.15-20.8Z"/><polygon class="cls-8" points="108.71 59.23 108.71 53.28 99.23 80.47 119.07 80.47 109.6 53.86 109.6 59.23 108.71 59.23"/><path class="cls-1" d="M146.16,105.74l-25-68.46a4.28,4.28,0,0,0-1.33-2.08,4.13,4.13,0,0,0-2.83-.91H109.6V53.86l9.47,26.61H99.23l9.48-27.19v-19h-7.45a4.08,4.08,0,0,0-2.82.91,4.3,4.3,0,0,0-1.34,2.08L72,105.74a4.1,4.1,0,0,0-.1,1,2.37,2.37,0,0,0,2.23,2.24H87.29a3.41,3.41,0,0,0,2.56-.8,4.08,4.08,0,0,0,1-1.44l4-10.88h28.47l4.16,10.88a4,4,0,0,0,1,1.44,3.26,3.26,0,0,0,2.4.8H144a2.29,2.29,0,0,0,1.66-.69,2.15,2.15,0,0,0,.69-1.55A2.18,2.18,0,0,0,146.16,105.74Z"/><path class="cls-1" d="M71.84,73.83a34.69,34.69,0,0,1-4.35,17.48,29.83,29.83,0,0,1-12.32,11.85,39.12,39.12,0,0,1-18.49,4.2H30.17a1.68,1.68,0,0,1-1.67-1.53v0c-.1-1.06-.18-2.16-.23-3.25-.14-2.19-.14-4.41-.13-6.64v0a2.71,2.71,0,0,1,2.71-2.67h4.78q9.27,0,14.43-5.06t5.16-14.33q0-9.27-5.16-14.43a18.17,18.17,0,0,0-11.55-5l.28-.5c.57-1,1.1-2,1.76-2.92s1.23-1.91,1.89-2.84l2.06-2.74a17,17,0,0,1,1.09-1.32l1.12-1.3h0A2.45,2.45,0,0,1,49.26,42a34.87,34.87,0,0,1,6,2.46A30,30,0,0,1,67.49,56.3,34.64,34.64,0,0,1,71.84,73.83Z"/><path class="cls-9" d="M36.82,40.35,34.2,42.78c-.91.9-1.76,1.84-2.65,2.77s-1.69,1.92-2.52,2.9l-1.24,1.49c-.41.5-.77,1-1.16,1.53L25.48,53c-.39.51-.77,1-1.11,1.58-.71,1.07-1.43,2.15-2.12,3.24l-2,3.34c-.64,1.12-1.21,2.28-1.82,3.42a105.45,105.45,0,0,0-6,14.32q-1.73,5.19-3,10.52V43.8A3.5,3.5,0,0,1,13,40.3H34.67C35.39,40.3,36.11,40.31,36.82,40.35Z"/><path class="cls-10" d="M77.06,21.92,73.67,23.2c-1.12.44-2.27.8-3.35,1.34-2.18,1-4.38,1.92-6.44,3.13a69.68,69.68,0,0,0-11.72,7.85L49.53,37.8c-.87.77-1.66,1.64-2.48,2.44l-1.22,1.22-.12.15-1,1.16-1.13,1.3c-.37.43-.76.86-1.09,1.32l-2.06,2.74c-.66.93-1.26,1.9-1.89,2.84s-1.19,1.94-1.76,2.92l-.28.5-.56,1c-.28.49-.52,1-.77,1.52l-.76,1.51c-.25.51-.5,1-.72,1.53L32.35,63l-1.18,3.16c-.38,1.07-.69,2.15-1,3.22a91,91,0,0,0-2.92,13.14,101,101,0,0,0-1,10.68c0,.9-.06,1.8-.08,2.7,0,2.23,0,4.45.13,6.64.05,1.09.13,2.19.23,3.25v0a1.39,1.39,0,0,1-1.38,1.51h0A15.55,15.55,0,0,1,9.54,91.81V89.45q1.25-5.33,3-10.52a105.45,105.45,0,0,1,6-14.32c.61-1.14,1.18-2.3,1.82-3.42l2-3.34c.69-1.09,1.41-2.17,2.12-3.24.34-.54.72-1.07,1.11-1.58l1.15-1.56c.39-.51.75-1,1.16-1.53L29,48.45c.83-1,1.62-2,2.52-2.9s1.74-1.87,2.65-2.77l2.62-2.43.19-.18c.45-.44,1-.84,1.44-1.24l1.48-1.2,1.48-1.2L43,35.43c1-.71,2-1.48,3.12-2.13l3.22-1.94a73.83,73.83,0,0,1,13.58-6c2.3-.85,4.7-1.39,7.05-2,1.16-.34,2.37-.51,3.57-.75Z"/><path class="cls-11" d="M9.65,89a114.6,114.6,0,0,1,4.18-13.51,125.35,125.35,0,0,1,5.71-12.95,88.71,88.71,0,0,1,7.47-12,67.52,67.52,0,0,1,4.56-5.43,49,49,0,0,1,5.25-4.73,60.16,60.16,0,0,0-9.39,10.46q-2,2.88-3.87,5.88c-1.21,2-2.34,4.08-3.42,6.16a138.48,138.48,0,0,0-5.83,12.83c-.87,2.18-1.7,4.39-2.47,6.61S10.32,86.74,9.65,89Z"/><path class="cls-12" d="M180.48,78.9a.92.92,0,0,1-.67-.26.9.9,0,0,1-.26-.68V53.57a.91.91,0,0,1,.93-.94h9.76a15,15,0,0,1,6.27,1.19,8.77,8.77,0,0,1,4,3.45A11.31,11.31,0,0,1,202,62.88c0,1.1,0,2.06,0,2.89s0,1.77,0,2.85a12.43,12.43,0,0,1-1.49,5.78,8.07,8.07,0,0,1-3.86,3.4,15.65,15.65,0,0,1-6.21,1.1Zm5.78-5.4h4a6.19,6.19,0,0,0,2.68-.51,3.42,3.42,0,0,0,1.62-1.59,6.88,6.88,0,0,0,.58-2.85c0-.73.08-1.38.09-2s0-1.15,0-1.72,0-1.22-.09-1.92a5.16,5.16,0,0,0-1.33-3.73A5.28,5.28,0,0,0,190.05,58h-3.79Z"/><path class="cls-13" d="M205.87,78.9a.92.92,0,0,1-.67-.26.9.9,0,0,1-.26-.68V53.57a.91.91,0,0,1,.93-.94h5a.91.91,0,0,1,.94.94V78a.89.89,0,0,1-.94.94Z"/><path class="cls-14" d="M225.72,79.28a14.67,14.67,0,0,1-6.13-1.18,8.92,8.92,0,0,1-4-3.46,11.3,11.3,0,0,1-1.56-5.53c0-1.08,0-2.22,0-3.44s0-2.37,0-3.47a10.76,10.76,0,0,1,1.58-5.4,9.08,9.08,0,0,1,4-3.38,14.85,14.85,0,0,1,6.08-1.16,16.49,16.49,0,0,1,5,.69,11.87,11.87,0,0,1,3.66,1.86,8.58,8.58,0,0,1,2.25,2.55,6,6,0,0,1,.81,2.74.61.61,0,0,1-.21.56.82.82,0,0,1-.58.23h-5.48a.92.92,0,0,1-1-.53,6.19,6.19,0,0,0-.77-1.18A4.31,4.31,0,0,0,228,58.11a5.11,5.11,0,0,0-2.31-.45,4.79,4.79,0,0,0-3.36,1.13,5.05,5.05,0,0,0-1.33,3.6q-.1,3.23,0,6.53a5.25,5.25,0,0,0,1.39,3.79,4.8,4.8,0,0,0,3.38,1.16,6.31,6.31,0,0,0,2.53-.48,3.84,3.84,0,0,0,1.74-1.52,4.93,4.93,0,0,0,.64-2.65v-.71h-3.52a1,1,0,0,1-.7-.28.94.94,0,0,1-.28-.7V64.75a1,1,0,0,1,1-1h9.45a.88.88,0,0,1,.68.28,1,1,0,0,1,.26.69V69a10.07,10.07,0,0,1-1.46,5.52A9.38,9.38,0,0,1,232,78.06,15,15,0,0,1,225.72,79.28Z"/><path class="cls-15" d="M242.83,78.9a.91.91,0,0,1-.94-.94V53.57a.92.92,0,0,1,.94-.94h5a.91.91,0,0,1,.94.94V78a.89.89,0,0,1-.94.94Z"/><path class="cls-16" d="M260.77,78.9a.89.89,0,0,1-.94-.94V58.53h-6.68a.87.87,0,0,1-.67-.29.89.89,0,0,1-.27-.65v-4a.92.92,0,0,1,.94-.94h20.19a.91.91,0,0,1,.94.94v4a.92.92,0,0,1-.26.65.89.89,0,0,1-.68.29h-6.68V78a.89.89,0,0,1-.94.94Z"/><path class="cls-17" d="M273.53,78.9a.78.78,0,0,1-.55-.24.77.77,0,0,1-.24-.55,1.15,1.15,0,0,1,0-.33l8.82-24.09a1.49,1.49,0,0,1,.47-.74,1.42,1.42,0,0,1,1-.32h5.55a1.46,1.46,0,0,1,1,.32,1.56,1.56,0,0,1,.47.74l8.78,24.09a.72.72,0,0,1,.07.33.77.77,0,0,1-.24.55.8.8,0,0,1-.58.24h-4.62a1.12,1.12,0,0,1-.84-.28,1.41,1.41,0,0,1-.36-.51l-1.46-3.82h-10l-1.43,3.82a1.45,1.45,0,0,1-.34.51,1.17,1.17,0,0,1-.9.28Zm8.82-10h7L285.8,59Z"/><path class="cls-18" d="M302.84,78.9a.93.93,0,0,1-.68-.26.9.9,0,0,1-.26-.68V53.57a.88.88,0,0,1,.26-.67.9.9,0,0,1,.68-.27h5a.89.89,0,0,1,.65.27.87.87,0,0,1,.29.67V73.24h11.33a.92.92,0,0,1,.69.28.94.94,0,0,1,.28.69V78a.88.88,0,0,1-.28.68,1,1,0,0,1-.69.26Z"/><path class="cls-19" d="M331.72,78.9a.84.84,0,0,1-.79-.79,1.15,1.15,0,0,1,0-.33l8.82-24.09a1.49,1.49,0,0,1,.47-.74,1.44,1.44,0,0,1,1-.32h5.55a1.46,1.46,0,0,1,1,.32,1.56,1.56,0,0,1,.47.74l8.78,24.09a.72.72,0,0,1,.07.33.77.77,0,0,1-.24.55.8.8,0,0,1-.58.24h-4.62a1.14,1.14,0,0,1-.84-.28,1.41,1.41,0,0,1-.36-.51L349,74.29H339l-1.43,3.82a1.55,1.55,0,0,1-.33.51,1.21,1.21,0,0,1-.91.28Zm8.82-10h7L344,59Z"/><path class="cls-20" d="M370.37,79.28a14.67,14.67,0,0,1-6.13-1.18,8.92,8.92,0,0,1-4-3.46,11.3,11.3,0,0,1-1.56-5.53c0-1.08,0-2.22,0-3.44s0-2.37,0-3.47a10.66,10.66,0,0,1,1.58-5.4,9,9,0,0,1,4-3.38,14.82,14.82,0,0,1,6.08-1.16,16.49,16.49,0,0,1,5,.69A11.87,11.87,0,0,1,379,54.81a8.58,8.58,0,0,1,2.25,2.55,6.1,6.1,0,0,1,.81,2.74.63.63,0,0,1-.21.56.82.82,0,0,1-.58.23h-5.48a1.17,1.17,0,0,1-.62-.13,1.07,1.07,0,0,1-.35-.4,6.72,6.72,0,0,0-.77-1.18,4.31,4.31,0,0,0-1.39-1.07,5.11,5.11,0,0,0-2.31-.45A4.76,4.76,0,0,0,367,58.79a5,5,0,0,0-1.33,3.6q-.12,3.23,0,6.53a5.21,5.21,0,0,0,1.39,3.79,4.79,4.79,0,0,0,3.38,1.16,6.31,6.31,0,0,0,2.53-.48,3.84,3.84,0,0,0,1.74-1.52,4.93,4.93,0,0,0,.64-2.65v-.71h-3.53a1,1,0,0,1-.69-.28.94.94,0,0,1-.28-.7V64.75a1,1,0,0,1,1-1h9.46a.9.9,0,0,1,.68.28,1,1,0,0,1,.26.69V69a10,10,0,0,1-1.47,5.52,9.3,9.3,0,0,1-4.14,3.51A15,15,0,0,1,370.37,79.28Z"/><path class="cls-21" d="M387.48,78.9a.91.91,0,0,1-.94-.94V53.57a.92.92,0,0,1,.94-.94H405a.91.91,0,0,1,.93.94V57.1a.9.9,0,0,1-.26.68A.92.92,0,0,1,405,58H393V63.1h11.15a.89.89,0,0,1,.68.29,1,1,0,0,1,.26.69v3.26a1,1,0,0,1-.26.66.88.88,0,0,1-.68.28H393V73.5h12.28a.92.92,0,0,1,.67.26.9.9,0,0,1,.26.68V78a.9.9,0,0,1-.26.68.92.92,0,0,1-.67.26Z"/><path class="cls-22" d="M411.46,78.9a.89.89,0,0,1-.94-.94V53.57a.91.91,0,0,1,.94-.94h4a1.27,1.27,0,0,1,.92.29,2,2,0,0,1,.35.43l9.16,14.44V53.57a.91.91,0,0,1,.94-.94h4.5a.91.91,0,0,1,.94.94V78a1,1,0,0,1-.26.66.88.88,0,0,1-.68.28h-4a1.18,1.18,0,0,1-.89-.3c-.18-.2-.3-.34-.35-.41L416.9,64.3V78a.89.89,0,0,1-.94.94Z"/><path class="cls-23" d="M446.06,79.28a14.46,14.46,0,0,1-6.1-1.17A8.87,8.87,0,0,1,436,74.7a11.35,11.35,0,0,1-1.56-5.59c0-1,0-2.13,0-3.3s0-2.31,0-3.38A11.24,11.24,0,0,1,436,56.89a9.1,9.1,0,0,1,4-3.45,14.26,14.26,0,0,1,6.05-1.18,16.18,16.18,0,0,1,4.57.62,11.38,11.38,0,0,1,3.68,1.8,8.58,8.58,0,0,1,2.46,2.85,8.3,8.3,0,0,1,.92,3.77.66.66,0,0,1-.21.57.81.81,0,0,1-.58.22h-5.07a1.19,1.19,0,0,1-.75-.21,1.65,1.65,0,0,1-.45-.76,4.36,4.36,0,0,0-1.7-2.73,5.51,5.51,0,0,0-2.91-.73,4.52,4.52,0,0,0-3.27,1.15,5.44,5.44,0,0,0-1.31,3.81q-.12,3.08,0,6.3a5.44,5.44,0,0,0,1.31,3.81A4.55,4.55,0,0,0,446,73.87a5.45,5.45,0,0,0,2.93-.75,4.18,4.18,0,0,0,1.68-2.7,1.38,1.38,0,0,1,.44-.77,1.29,1.29,0,0,1,.76-.2h5.07a.81.81,0,0,1,.58.22.65.65,0,0,1,.21.56,8.27,8.27,0,0,1-.92,3.77,8.52,8.52,0,0,1-2.46,2.86,11.38,11.38,0,0,1-3.68,1.8A16.18,16.18,0,0,1,446.06,79.28Z"/><path class="cls-24" d="M466.35,78.9a.94.94,0,0,1-.65-.26.88.88,0,0,1-.28-.68V69.9l-8.71-16.06c0-.08,0-.15-.07-.21a.46.46,0,0,1,0-.21.75.75,0,0,1,.24-.54.81.81,0,0,1,.58-.25h4.69a1.31,1.31,0,0,1,.89.29,1.24,1.24,0,0,1,.39.5l5.4,9.68,5.41-9.68a1.66,1.66,0,0,1,.43-.5,1.28,1.28,0,0,1,.88-.29h4.69a.73.73,0,0,1,.56.25.78.78,0,0,1,.23.54,1.25,1.25,0,0,1,0,.21,1.15,1.15,0,0,1-.06.21L472.17,69.9V78a.89.89,0,0,1-.94.94Z"/><path class="cls-25" d="M490.54,78.9a.89.89,0,0,1-.93-.94V53.57a.91.91,0,0,1,.93-.94h10.51a14,14,0,0,1,5.42,1,8,8,0,0,1,3.61,2.87,8.49,8.49,0,0,1,1.29,4.84,8.23,8.23,0,0,1-1.29,4.77,7.66,7.66,0,0,1-3.61,2.78,14.83,14.83,0,0,1-5.42.9h-4.46V78a.88.88,0,0,1-.29.68.94.94,0,0,1-.69.26Zm5.93-14.33h4.39a3.78,3.78,0,0,0,2.57-.83,3.13,3.13,0,0,0,1-2.51,3.59,3.59,0,0,0-.82-2.4,3.39,3.39,0,0,0-2.71-1h-4.39Z"/><path class="cls-26" d="M512.08,78.9a.75.75,0,0,1-.54-.24.77.77,0,0,1-.24-.55,1.69,1.69,0,0,1,0-.33l8.82-24.09a1.56,1.56,0,0,1,.47-.74,1.46,1.46,0,0,1,1-.32h5.55a1.44,1.44,0,0,1,1,.32,1.49,1.49,0,0,1,.47.74l8.78,24.09a.73.73,0,0,1,.08.33.77.77,0,0,1-.24.55.82.82,0,0,1-.59.24h-4.61a1.15,1.15,0,0,1-.85-.28,1.5,1.5,0,0,1-.35-.51l-1.47-3.82h-10l-1.42,3.82a1.45,1.45,0,0,1-.34.51,1.18,1.18,0,0,1-.9.28Zm8.82-10h7L524.36,59Z"/><path class="cls-27" d="M541.39,78.9a.88.88,0,0,1-.67-.26.9.9,0,0,1-.27-.68V53.57a.92.92,0,0,1,.94-.94H551.6a11.89,11.89,0,0,1,7.63,2.24,7.6,7.6,0,0,1,2.8,6.32,7.61,7.61,0,0,1-1.29,4.5,8.11,8.11,0,0,1-3.4,2.78l5.18,9.23a1,1,0,0,1,.11.41.77.77,0,0,1-.24.55.82.82,0,0,1-.59.24h-4.95a1.43,1.43,0,0,1-1.05-.35,3.09,3.09,0,0,1-.49-.66L551,69.63h-3.86V78a.93.93,0,0,1-.26.68.9.9,0,0,1-.68.26Zm5.78-14.56h4.35a3.63,3.63,0,0,0,2.65-.86,3.15,3.15,0,0,0,.88-2.36,3.33,3.33,0,0,0-.84-2.37,3.55,3.55,0,0,0-2.69-.9h-4.35Z"/><path class="cls-28" d="M567.32,78.9a.88.88,0,0,1-.67-.26.9.9,0,0,1-.27-.68V53.57a.92.92,0,0,1,.94-.94h4.73a.92.92,0,0,1,.94.94V61.9l6.94-8.55a1.82,1.82,0,0,1,.51-.47,1.65,1.65,0,0,1,.95-.25h5.41a.75.75,0,0,1,.56.25.76.76,0,0,1,.22.54.68.68,0,0,1-.15.45l-9,11.34,9.68,12.45a.61.61,0,0,1,.15.45.84.84,0,0,1-.79.79h-5.59a1.54,1.54,0,0,1-1-.3,3,3,0,0,1-.47-.45L573,68.88V78a.9.9,0,0,1-.27.68.88.88,0,0,1-.67.26Z"/><path class="cls-1" d="M190.09,93.34a2.1,2.1,0,0,1-.93-.72,1.91,1.91,0,0,1-.35-1.12h1.51a1,1,0,0,0,.3.69,1.09,1.09,0,0,0,.76.25,1.17,1.17,0,0,0,.78-.24.78.78,0,0,0,.28-.62.76.76,0,0,0-.19-.51,1.33,1.33,0,0,0-.48-.31,6.63,6.63,0,0,0-.79-.26,7.53,7.53,0,0,1-1.11-.4,1.89,1.89,0,0,1-.73-.59,1.65,1.65,0,0,1-.31-1.06,1.89,1.89,0,0,1,.31-1.09,2,2,0,0,1,.87-.7,3.13,3.13,0,0,1,1.29-.25,2.79,2.79,0,0,1,1.76.53,1.9,1.9,0,0,1,.75,1.47h-1.54a.84.84,0,0,0-.31-.6,1.13,1.13,0,0,0-.76-.23,1,1,0,0,0-.66.21.76.76,0,0,0-.24.61.66.66,0,0,0,.18.47,1.66,1.66,0,0,0,.46.3c.19.08.45.16.78.26a8,8,0,0,1,1.12.41,1.93,1.93,0,0,1,.74.6,1.66,1.66,0,0,1,.31,1,1.93,1.93,0,0,1-.29,1.05,2.06,2.06,0,0,1-.85.77,2.94,2.94,0,0,1-1.34.28A3.27,3.27,0,0,1,190.09,93.34Z"/><path class="cls-1" d="M200.58,93.13a3.43,3.43,0,0,1-1.31-1.28,3.81,3.81,0,0,1,0-3.7,3.5,3.5,0,0,1,1.31-1.28,3.79,3.79,0,0,1,3.62,0,3.47,3.47,0,0,1,1.3,1.28,3.88,3.88,0,0,1,0,3.7,3.43,3.43,0,0,1-1.31,1.28,3.77,3.77,0,0,1-3.61,0Zm2.92-1.08a1.93,1.93,0,0,0,.75-.82,2.84,2.84,0,0,0,0-2.46,1.9,1.9,0,0,0-.75-.81,2.13,2.13,0,0,0-1.11-.28,2.2,2.2,0,0,0-1.13.28,1.9,1.9,0,0,0-.75.81,2.84,2.84,0,0,0,0,2.46,1.93,1.93,0,0,0,.75.82,2.21,2.21,0,0,0,1.13.29A2.14,2.14,0,0,0,203.5,92.05Z"/><path class="cls-1" d="M215.37,86.51v1.14h-2.93v1.79h2.25v1.12h-2.25v3H211v-7Z"/><path class="cls-1" d="M225.16,86.51v1.14h-1.87v5.87h-1.41V87.65H220V86.51Z"/><path class="cls-1" d="M239.58,86.51l-2,7H236l-1.32-5-1.37,5h-1.65l-1.89-7h1.51L232.47,92l1.43-5.45h1.57l1.34,5.42,1.25-5.42Z"/><path class="cls-1" d="M248.81,92.19H246l-.46,1.33h-1.48l2.52-7h1.64l2.52,7h-1.48Zm-.38-1.13-1-2.93-1,2.93Z"/><path class="cls-1" d="M259.35,93.52l-1.55-2.73h-.67v2.73h-1.4v-7h2.63a3.1,3.1,0,0,1,1.39.29,2,2,0,0,1,.86.77,2.13,2.13,0,0,1,.28,1.09,2,2,0,0,1-1.6,2L261,93.52Zm-2.22-3.78h1.18a1.17,1.17,0,0,0,.85-.28,1,1,0,0,0,.29-.77,1,1,0,0,0-.29-.75,1.17,1.17,0,0,0-.85-.26h-1.18Z"/><path class="cls-1" d="M267.6,87.65V89.4H270v1.12H267.6v1.86h2.66v1.14h-4.07v-7h4.07v1.15Z"/><path class="cls-1" d="M283.07,93.34a2,2,0,0,1-.93-.72,1.84,1.84,0,0,1-.35-1.12h1.5a1,1,0,0,0,.31.69,1.07,1.07,0,0,0,.76.25,1.15,1.15,0,0,0,.77-.24.75.75,0,0,0,.28-.62.72.72,0,0,0-.19-.51,1.25,1.25,0,0,0-.48-.31,6.38,6.38,0,0,0-.78-.26,7.53,7.53,0,0,1-1.11-.4,2,2,0,0,1-.74-.59,1.71,1.71,0,0,1-.3-1.06,1.89,1.89,0,0,1,.31-1.09,2,2,0,0,1,.87-.7,3.09,3.09,0,0,1,1.29-.25,2.79,2.79,0,0,1,1.76.53,2,2,0,0,1,.75,1.47h-1.55a.8.8,0,0,0-.3-.6,1.17,1.17,0,0,0-.76-.23,1,1,0,0,0-.66.21.74.74,0,0,0-.25.61.63.63,0,0,0,.19.47,1.53,1.53,0,0,0,.46.3,7,7,0,0,0,.78.26,7.85,7.85,0,0,1,1.11.41,2,2,0,0,1,.75.6,1.66,1.66,0,0,1,.31,1,2,2,0,0,1-.29,1.05,2.09,2.09,0,0,1-.86.77,2.9,2.9,0,0,1-1.33.28A3.27,3.27,0,0,1,283.07,93.34Z"/><path class="cls-1" d="M293.55,93.13a3.4,3.4,0,0,1-1.3-1.28,3.61,3.61,0,0,1,1.3-5,3.81,3.81,0,0,1,3.63,0,3.52,3.52,0,0,1,1.29,1.28,3.81,3.81,0,0,1,0,3.7,3.4,3.4,0,0,1-1.3,1.28,3.79,3.79,0,0,1-3.62,0Zm2.93-1.08a1.93,1.93,0,0,0,.75-.82,2.94,2.94,0,0,0,0-2.46,1.9,1.9,0,0,0-.75-.81,2.17,2.17,0,0,0-1.12-.28,2.19,2.19,0,0,0-1.12.28,1.92,1.92,0,0,0-.76.81,2.94,2.94,0,0,0,0,2.46,2,2,0,0,0,.76.82,2.2,2.2,0,0,0,1.12.29A2.17,2.17,0,0,0,296.48,92.05Z"/><path class="cls-1" d="M305.42,92.41h2.31v1.11H304v-7h1.41Z"/><path class="cls-1" d="M314,86.51v4.34a1.47,1.47,0,0,0,.38,1.09,1.38,1.38,0,0,0,1,.38,1.43,1.43,0,0,0,1.06-.38,1.51,1.51,0,0,0,.37-1.09V86.51h1.41v4.33a2.75,2.75,0,0,1-.38,1.51,2.39,2.39,0,0,1-1,.93,3.24,3.24,0,0,1-1.44.31,3.15,3.15,0,0,1-1.42-.31,2.27,2.27,0,0,1-1-.93,2.84,2.84,0,0,1-.37-1.51V86.51Z"/><path class="cls-1" d="M328.44,86.51v1.14h-1.86v5.87h-1.41V87.65H323.3V86.51Z"/><path class="cls-1" d="M334.9,86.51v7h-1.41v-7Z"/><path class="cls-1" d="M341.75,93.13a3.43,3.43,0,0,1-1.31-1.28,3.81,3.81,0,0,1,0-3.7,3.5,3.5,0,0,1,1.31-1.28,3.79,3.79,0,0,1,3.62,0,3.47,3.47,0,0,1,1.3,1.28,3.81,3.81,0,0,1,0,3.7,3.4,3.4,0,0,1-1.3,1.28,3.79,3.79,0,0,1-3.62,0Zm2.92-1.08a1.89,1.89,0,0,0,.76-.82,2.94,2.94,0,0,0,0-2.46,1.86,1.86,0,0,0-.76-.81,2.13,2.13,0,0,0-1.11-.28,2.17,2.17,0,0,0-1.12.28,1.86,1.86,0,0,0-.76.81,2.94,2.94,0,0,0,0,2.46,1.89,1.89,0,0,0,.76.82,2.17,2.17,0,0,0,1.12.29A2.14,2.14,0,0,0,344.67,92.05Z"/><path class="cls-1" d="M358.21,93.52H356.8l-3.18-4.81v4.81h-1.41v-7h1.41l3.18,4.82V86.5h1.41Z"/><path class="cls-1" d="M364.72,93.34a2.1,2.1,0,0,1-.93-.72,1.84,1.84,0,0,1-.35-1.12h1.5a1,1,0,0,0,.31.69,1.07,1.07,0,0,0,.76.25,1.15,1.15,0,0,0,.77-.24.75.75,0,0,0,.28-.62.72.72,0,0,0-.19-.51,1.21,1.21,0,0,0-.47-.31,7.31,7.31,0,0,0-.79-.26,7.53,7.53,0,0,1-1.11-.4,2,2,0,0,1-.74-.59,1.71,1.71,0,0,1-.3-1.06,1.89,1.89,0,0,1,.31-1.09,2,2,0,0,1,.87-.7,3.13,3.13,0,0,1,1.29-.25,2.79,2.79,0,0,1,1.76.53,2,2,0,0,1,.75,1.47h-1.55a.8.8,0,0,0-.3-.6,1.15,1.15,0,0,0-.76-.23,1,1,0,0,0-.66.21.77.77,0,0,0-.25.61.67.67,0,0,0,.19.47,1.53,1.53,0,0,0,.46.3c.19.08.45.16.78.26a8,8,0,0,1,1.12.41,2,2,0,0,1,.74.6,1.66,1.66,0,0,1,.31,1,2,2,0,0,1-.29,1.05,2.06,2.06,0,0,1-.85.77,3,3,0,0,1-1.34.28A3.27,3.27,0,0,1,364.72,93.34Z"/><path class="cls-1" d="M375.29,92.05l-1.17,2.82h-.91l.66-2.82Z"/><path class="cls-1" d="M387.84,93.34a2.1,2.1,0,0,1-.93-.72,1.91,1.91,0,0,1-.35-1.12h1.51a1,1,0,0,0,.3.69,1.09,1.09,0,0,0,.76.25,1.17,1.17,0,0,0,.78-.24.78.78,0,0,0,.28-.62.76.76,0,0,0-.19-.51,1.33,1.33,0,0,0-.48-.31,6.07,6.07,0,0,0-.79-.26,7.53,7.53,0,0,1-1.11-.4,1.89,1.89,0,0,1-.73-.59,1.65,1.65,0,0,1-.31-1.06,1.89,1.89,0,0,1,.31-1.09,2,2,0,0,1,.88-.7,3,3,0,0,1,1.28-.25,2.82,2.82,0,0,1,1.77.53,1.93,1.93,0,0,1,.74,1.47H390a.84.84,0,0,0-.31-.6,1.13,1.13,0,0,0-.76-.23,1,1,0,0,0-.66.21.76.76,0,0,0-.24.61.66.66,0,0,0,.18.47,1.66,1.66,0,0,0,.46.3c.19.08.45.16.78.26a8,8,0,0,1,1.12.41,1.86,1.86,0,0,1,.74.6,1.66,1.66,0,0,1,.31,1,1.93,1.93,0,0,1-.29,1.05,2.06,2.06,0,0,1-.85.77,2.94,2.94,0,0,1-1.34.28A3.27,3.27,0,0,1,387.84,93.34Z"/><path class="cls-1" d="M398.29,87.65V89.4h2.36v1.12h-2.36v1.86H401v1.14h-4.07v-7H401v1.15Z"/><path class="cls-1" d="M410.55,92.19h-2.8l-.46,1.33h-1.48l2.53-7H410l2.53,7H411Zm-.38-1.13-1-2.93-1,2.93Z"/><path class="cls-1" d="M425.11,86.51v7H423.7V89l-1.88,4.56h-1.06L418.87,89v4.56h-1.41v-7h1.6l2.23,5.22,2.23-5.22Z"/><path class="cls-1" d="M431.92,92.41h2.31v1.11h-3.71v-7h1.4Z"/><path class="cls-1" d="M440.55,87.65V89.4h2.37v1.12h-2.37v1.86h2.67v1.14h-4.07v-7h4.07v1.15Z"/><path class="cls-1" d="M449.61,93.34a2.1,2.1,0,0,1-.93-.72,2,2,0,0,1-.35-1.12h1.51a1,1,0,0,0,.31.69,1.06,1.06,0,0,0,.76.25,1.16,1.16,0,0,0,.77-.24.75.75,0,0,0,.28-.62.72.72,0,0,0-.19-.51,1.33,1.33,0,0,0-.48-.31,6.07,6.07,0,0,0-.79-.26,8.49,8.49,0,0,1-1.11-.4,2,2,0,0,1-.73-.59,1.65,1.65,0,0,1-.31-1.06,2,2,0,0,1,.31-1.09,2,2,0,0,1,.88-.7,3.06,3.06,0,0,1,1.29-.25,2.79,2.79,0,0,1,1.76.53,2,2,0,0,1,.75,1.47h-1.55a.81.81,0,0,0-.31-.6,1.13,1.13,0,0,0-.76-.23,1,1,0,0,0-.65.21.74.74,0,0,0-.25.61.63.63,0,0,0,.19.47,1.41,1.41,0,0,0,.46.3,7,7,0,0,0,.78.26,8.35,8.35,0,0,1,1.11.41,2,2,0,0,1,.75.6,1.72,1.72,0,0,1,.31,1,2,2,0,0,1-.29,1.05,2.09,2.09,0,0,1-.86.77,2.9,2.9,0,0,1-1.33.28A3.35,3.35,0,0,1,449.61,93.34Z"/><path class="cls-1" d="M459.75,93.34a2.1,2.1,0,0,1-.93-.72,2,2,0,0,1-.35-1.12H460a1,1,0,0,0,.31.69,1.06,1.06,0,0,0,.76.25,1.16,1.16,0,0,0,.77-.24.75.75,0,0,0,.28-.62.72.72,0,0,0-.19-.51,1.33,1.33,0,0,0-.48-.31,6.07,6.07,0,0,0-.79-.26,8.49,8.49,0,0,1-1.11-.4,2,2,0,0,1-.73-.59,1.65,1.65,0,0,1-.31-1.06,2,2,0,0,1,.31-1.09,2,2,0,0,1,.88-.7,3,3,0,0,1,1.28-.25,2.8,2.8,0,0,1,1.77.53,2,2,0,0,1,.75,1.47h-1.55a.81.81,0,0,0-.31-.6,1.13,1.13,0,0,0-.76-.23,1,1,0,0,0-.65.21.74.74,0,0,0-.25.61.63.63,0,0,0,.19.47,1.41,1.41,0,0,0,.46.3,7,7,0,0,0,.78.26,8.35,8.35,0,0,1,1.11.41,2,2,0,0,1,.75.6,1.72,1.72,0,0,1,.31,1,2,2,0,0,1-.29,1.05,2.09,2.09,0,0,1-.86.77,2.9,2.9,0,0,1-1.33.28A3.35,3.35,0,0,1,459.75,93.34Z"/><path class="cls-1" d="M476.61,87.65V89.4H479v1.12h-2.36v1.86h2.66v1.14H475.2v-7h4.07v1.15Z"/><path class="cls-1" d="M488.77,93.52l-1.52-2.36-1.37,2.36h-1.59L486.5,90l-2.24-3.48h1.62l1.51,2.35,1.37-2.35h1.59L488.15,90l2.24,3.48Z"/><path class="cls-1" d="M500.33,89.74a1.93,1.93,0,0,1-.83.79,3.06,3.06,0,0,1-1.43.3h-1.18v2.69h-1.41v-7h2.59a3.06,3.06,0,0,1,1.38.28,1.93,1.93,0,0,1,.86.78,2.24,2.24,0,0,1,0,2.17Zm-1.46-.31a1,1,0,0,0,.28-.75q0-1-1.14-1h-1.12v2H498A1.2,1.2,0,0,0,498.87,89.43Z"/><path class="cls-1" d="M507,87.65V89.4h2.36v1.12H507v1.86h2.66v1.14h-4.07v-7h4.07v1.15Z"/><path class="cls-1" d="M518.6,93.52l-1.55-2.73h-.66v2.73H515v-7h2.63a3.07,3.07,0,0,1,1.39.29,2,2,0,0,1,.86.77,2.14,2.14,0,0,1,.29,1.09,2.08,2.08,0,0,1-.41,1.25,2,2,0,0,1-1.19.77l1.68,2.84Zm-2.21-3.78h1.17a1.22,1.22,0,0,0,.86-.28,1.05,1.05,0,0,0,.28-.77,1,1,0,0,0-.28-.75,1.21,1.21,0,0,0-.86-.26h-1.17Z"/><path class="cls-1" d="M526.85,86.51v7h-1.41v-7Z"/><path class="cls-1" d="M533.66,87.65V89.4H536v1.12h-2.36v1.86h2.66v1.14h-4.07v-7h4.07v1.15Z"/><path class="cls-1" d="M547.62,93.52h-1.41L543,88.71v4.81h-1.41v-7H543l3.18,4.82V86.5h1.41Z"/><path class="cls-1" d="M553.15,88.15a3.32,3.32,0,0,1,1.28-1.27,3.82,3.82,0,0,1,3.87.14,3.18,3.18,0,0,1,1.24,1.67h-1.62a1.66,1.66,0,0,0-.68-.75,2,2,0,0,0-1-.25,2.08,2.08,0,0,0-1.09.28,1.94,1.94,0,0,0-.74.81,2.91,2.91,0,0,0,0,2.45,1.94,1.94,0,0,0,.74.81,2.09,2.09,0,0,0,1.09.29,2,2,0,0,0,1-.26,1.69,1.69,0,0,0,.68-.76h1.62A3.2,3.2,0,0,1,558.31,93a3.59,3.59,0,0,1-2.07.59,3.65,3.65,0,0,1-1.81-.45,3.39,3.39,0,0,1-1.28-1.27,3.68,3.68,0,0,1-.46-1.85A3.72,3.72,0,0,1,553.15,88.15Z"/><path class="cls-1" d="M566.17,87.65V89.4h2.36v1.12h-2.36v1.86h2.66v1.14h-4.07v-7h4.07v1.15Z"/><path class="cls-1" d="M575.23,93.34a2.1,2.1,0,0,1-.93-.72A1.91,1.91,0,0,1,574,91.5h1.51a1,1,0,0,0,.3.69,1.09,1.09,0,0,0,.76.25,1.17,1.17,0,0,0,.78-.24.78.78,0,0,0,.28-.62.76.76,0,0,0-.19-.51,1.33,1.33,0,0,0-.48-.31,6.07,6.07,0,0,0-.79-.26,7.53,7.53,0,0,1-1.11-.4,1.89,1.89,0,0,1-.73-.59,1.65,1.65,0,0,1-.31-1.06,1.89,1.89,0,0,1,.31-1.09,2,2,0,0,1,.88-.7,3,3,0,0,1,1.28-.25,2.82,2.82,0,0,1,1.77.53,1.93,1.93,0,0,1,.74,1.47h-1.54a.84.84,0,0,0-.31-.6,1.13,1.13,0,0,0-.76-.23,1,1,0,0,0-.66.21.76.76,0,0,0-.24.61.66.66,0,0,0,.18.47,1.58,1.58,0,0,0,.47.3,7.45,7.45,0,0,0,.77.26,8,8,0,0,1,1.12.41,1.86,1.86,0,0,1,.74.6,1.66,1.66,0,0,1,.31,1,1.93,1.93,0,0,1-.29,1.05,2.06,2.06,0,0,1-.85.77,2.94,2.94,0,0,1-1.34.28A3.27,3.27,0,0,1,575.23,93.34Z"/></svg>