<svg id="Layer_1" data-name="Layer 1" xmlns="http://www.w3.org/2000/svg" xmlns:xlink="http://www.w3.org/1999/xlink" viewBox="0 0 598 110"><defs><style>.cls-1{fill:url(#linear-gradient);}.cls-2{fill:url(#linear-gradient-2);}.cls-3{fill:url(#linear-gradient-3);}.cls-4{fill:url(#linear-gradient-4);}.cls-5{fill:url(#linear-gradient-5);}.cls-6{fill:url(#linear-gradient-6);}.cls-7{fill:none;}.cls-8{fill:url(#linear-gradient-7);}.cls-9{fill:#052128;}.cls-10{fill:url(#linear-gradient-8);}.cls-11{fill:url(#linear-gradient-9);}.cls-12{fill:url(#radial-gradient);}.cls-13{fill:url(#linear-gradient-10);}.cls-14{fill:url(#linear-gradient-11);}.cls-15{fill:url(#linear-gradient-12);}.cls-16{fill:url(#linear-gradient-13);}.cls-17{fill:url(#linear-gradient-14);}.cls-18{fill:url(#linear-gradient-15);}.cls-19{fill:url(#linear-gradient-16);}.cls-20{fill:url(#linear-gradient-17);}.cls-21{fill:url(#linear-gradient-18);}.cls-22{fill:url(#linear-gradient-19);}.cls-23{fill:url(#linear-gradient-20);}.cls-24{fill:url(#linear-gradient-21);}.cls-25{fill:url(#linear-gradient-22);}.cls-26{fill:url(#linear-gradient-23);}.cls-27{fill:url(#linear-gradient-24);}.cls-28{fill:url(#linear-gradient-25);}.cls-29{fill:url(#linear-gradient-26);}</style><linearGradient id="linear-gradient" x1="170.96" y1="11.55" x2="160.47" y2="22.34" gradientUnits="userSpaceOnUse"><stop offset="0" stop-color="#00aced"/><stop offset="0.25" stop-color="#04a5e6"/><stop offset="0.62" stop-color="#0e90d3"/><stop offset="1" stop-color="#1b75ba"/></linearGradient><linearGradient id="linear-gradient-2" x1="152.02" y1="32.88" x2="121.93" y2="43.37" xlink:href="#linear-gradient"/><linearGradient id="linear-gradient-3" x1="179.72" y1="28.78" x2="167.35" y2="27" xlink:href="#linear-gradient"/><linearGradient id="linear-gradient-4" x1="180.95" y1="38.94" x2="166.9" y2="35.97" xlink:href="#linear-gradient"/><linearGradient id="linear-gradient-5" x1="161.17" y1="28.31" x2="152.56" y2="32.86" xlink:href="#linear-gradient"/><linearGradient id="linear-gradient-6" x1="99.35" y1="48.71" x2="152.2" y2="37.83" gradientUnits="userSpaceOnUse"><stop offset="0" stop-color="#00aced"/><stop offset="1" stop-color="#1b75ba"/></linearGradient><linearGradient id="linear-gradient-7" x1="117.84" y1="25.36" x2="133.83" y2="102.07" xlink:href="#linear-gradient"/><linearGradient id="linear-gradient-8" x1="4.96" y1="65.92" x2="25.03" y2="35.53" xlink:href="#linear-gradient-6"/><linearGradient id="linear-gradient-9" x1="59.51" y1="9.97" x2="18.8" y2="100.43" xlink:href="#linear-gradient-6"/><radialGradient id="radial-gradient" cx="23.31" cy="57.44" r="22.61" gradientUnits="userSpaceOnUse"><stop offset="0" stop-color="#00aced"/><stop offset="0.4" stop-color="#01aaeb"/><stop offset="0.61" stop-color="#05a2e3"/><stop offset="0.78" stop-color="#0c94d7"/><stop offset="0.93" stop-color="#1581c5"/><stop offset="1" stop-color="#1b75ba"/></radialGradient><linearGradient id="linear-gradient-10" x1="189.22" y1="52.9" x2="197.69" y2="104.66" xlink:href="#linear-gradient-6"/><linearGradient id="linear-gradient-11" x1="207.07" y1="49.98" x2="215.54" y2="101.74" xlink:href="#linear-gradient-6"/><linearGradient id="linear-gradient-12" x1="224.13" y1="47.19" x2="232.6" y2="98.95" xlink:href="#linear-gradient-6"/><linearGradient id="linear-gradient-13" x1="243.06" y1="44.09" x2="251.53" y2="95.85" xlink:href="#linear-gradient-6"/><linearGradient id="linear-gradient-14" x1="262.12" y1="40.97" x2="270.59" y2="92.73" xlink:href="#linear-gradient-6"/><linearGradient id="linear-gradient-15" x1="280.53" y1="37.96" x2="289" y2="89.72" xlink:href="#linear-gradient-6"/><linearGradient id="linear-gradient-16" x1="305.81" y1="33.82" x2="314.28" y2="85.58" xlink:href="#linear-gradient-6"/><linearGradient id="linear-gradient-17" x1="337.2" y1="28.68" x2="345.67" y2="80.45" xlink:href="#linear-gradient-6"/><linearGradient id="linear-gradient-18" x1="365" y1="24.13" x2="373.47" y2="75.9" xlink:href="#linear-gradient-6"/><linearGradient id="linear-gradient-19" x1="390.02" y1="20.04" x2="398.5" y2="71.8" xlink:href="#linear-gradient-6"/><linearGradient id="linear-gradient-20" x1="414.51" y1="16.03" x2="422.98" y2="67.8" xlink:href="#linear-gradient-6"/><linearGradient id="linear-gradient-21" x1="438.64" y1="12.08" x2="447.11" y2="63.85" xlink:href="#linear-gradient-6"/><linearGradient id="linear-gradient-22" x1="462.65" y1="8.15" x2="471.12" y2="59.92" xlink:href="#linear-gradient-6"/><linearGradient id="linear-gradient-23" x1="491" y1="3.51" x2="499.47" y2="55.28" xlink:href="#linear-gradient-6"/><linearGradient id="linear-gradient-24" x1="512.87" y1="-0.06" x2="521.34" y2="51.7" xlink:href="#linear-gradient-6"/><linearGradient id="linear-gradient-25" x1="540.44" y1="-4.57" x2="548.91" y2="47.19" xlink:href="#linear-gradient-6"/><linearGradient id="linear-gradient-26" x1="566.06" y1="-8.77" x2="574.53" y2="43" xlink:href="#linear-gradient-6"/></defs><title>Artboard 1</title><path class="cls-1" d="M160.74,23.33a.71.71,0,0,0,.35-.24L169,14.7a.87.87,0,0,0,0-1.24.9.9,0,0,0-1.25,0l-7.9,8.39a.89.89,0,0,0,0,1.25A.91.91,0,0,0,160.74,23.33Z"/><path class="cls-2" d="M142.67,12c-6.54,6.21-16.21,15.16-30.26,22.94l7.15,20.8c15.92-2.51,29-1.42,38-.53Z"/><path class="cls-3" d="M173.59,24.53,163,28.16a.89.89,0,1,0,.58,1.68l10.55-3.63a.89.89,0,0,0-.58-1.68Z"/><path class="cls-4" d="M176.6,36.81,165.2,35a.87.87,0,0,0-1,.74.85.85,0,0,0,.73,1l11.39,1.76a.89.89,0,0,0,.43,0,.91.91,0,0,0,.59-.69A.88.88,0,0,0,176.6,36.81Z"/><path class="cls-5" d="M152.62,24.09l-5-14.56a1.83,1.83,0,0,0-2.33-1.13l-.17,0A1.83,1.83,0,0,0,144,10.78l15.3,44.48a1.83,1.83,0,0,0,2.33,1.13l.16,0A1.83,1.83,0,0,0,162.91,54l-5-14.56c2.27-2,3.11-5.65,1.88-9.23S155.64,24.28,152.62,24.09Z"/><path class="cls-6" d="M112.16,35l7.11,20.68.29,0-7.15-20.8Z"/><polygon class="cls-7" points="108.79 52 108.79 46.05 99.32 73.23 119.15 73.23 109.68 46.63 109.68 52 108.79 52"/><path class="cls-8" d="M144.94,94.94a11.23,11.23,0,0,1-17.55,4l-3.86-10.11-.11-.28-4.27-15.36-9.47-26.6V27.06h7.44A4.11,4.11,0,0,1,120,28,4.25,4.25,0,0,1,121.28,30l18.33,50.28Z"/><path class="cls-9" d="M123.42,88.59H94.94l-4,10.88a4.14,4.14,0,0,1-1,1.43,3.37,3.37,0,0,1-2.56.8H74.26A2.37,2.37,0,0,1,72,99.47a4,4,0,0,1,.1-1L97.18,30A4.35,4.35,0,0,1,98.52,28a4.08,4.08,0,0,1,2.82-.9h7.45v19L99.32,73.23h19.83Z"/><path class="cls-9" d="M71.92,66.59a34.83,34.83,0,0,1-4.34,17.49A29.77,29.77,0,0,1,55.25,95.92a39,39,0,0,1-18.48,4.21H30.25a1.68,1.68,0,0,1-1.67-1.53v0c-.1-1.06-.18-2.16-.23-3.26-.14-2.19-.14-4.41-.13-6.63v0A2.71,2.71,0,0,1,30.93,86h4.78Q45,86,50.14,80.93T55.3,66.59q0-9.26-5.16-14.42a18.18,18.18,0,0,0-11.55-5l.28-.5c.57-1,1.1-2,1.76-2.92s1.23-1.91,1.89-2.83l2.06-2.74c.33-.47.72-.9,1.09-1.33l1.13-1.3h0a2.43,2.43,0,0,1,2.54-.72,34.87,34.87,0,0,1,6,2.46,30,30,0,0,1,12.28,11.8A34.7,34.7,0,0,1,71.92,66.59Z"/><path class="cls-10" d="M36.9,33.11l-2.62,2.44c-.91.89-1.76,1.84-2.65,2.77s-1.69,1.92-2.52,2.9l-1.24,1.49c-.41.49-.77,1-1.16,1.53l-1.15,1.55c-.39.52-.77,1.05-1.11,1.58-.71,1.08-1.43,2.16-2.12,3.25l-2,3.33c-.63,1.13-1.21,2.28-1.82,3.43a105.45,105.45,0,0,0-6,14.32q-1.72,5.19-3,10.52V36.57a3.5,3.5,0,0,1,3.5-3.5H34.75C35.47,33.07,36.19,33.08,36.9,33.11Z"/><path class="cls-11" d="M77.14,14.69,73.75,16c-1.12.44-2.27.81-3.35,1.34-2.18,1-4.38,1.93-6.44,3.14a70.24,70.24,0,0,0-11.72,7.84l-2.63,2.29c-.87.77-1.66,1.63-2.48,2.43l-1.22,1.23-.12.15-1,1.15-1.13,1.3c-.37.43-.76.86-1.09,1.33L40.5,40.9c-.66.92-1.26,1.89-1.89,2.83s-1.19,1.94-1.76,2.92l-.28.5-.56,1c-.27.49-.52,1-.77,1.51l-.76,1.52c-.25.5-.5,1-.72,1.53l-1.33,3.11L31.26,59c-.39,1.06-.7,2.15-1.05,3.22A91.12,91.12,0,0,0,27.29,75.3a101.16,101.16,0,0,0-1,10.69c0,.9-.06,1.8-.08,2.7,0,2.22,0,4.44.13,6.63.06,1.1.13,2.2.23,3.26v0a1.39,1.39,0,0,1-1.38,1.52h0A15.56,15.56,0,0,1,9.62,84.57V82.22q1.24-5.32,3-10.52a105.45,105.45,0,0,1,6-14.32c.61-1.15,1.19-2.3,1.82-3.43l2-3.33c.69-1.09,1.41-2.17,2.12-3.25.34-.53.72-1.06,1.11-1.58l1.15-1.55c.39-.51.75-1,1.16-1.53l1.24-1.49c.83-1,1.62-2,2.52-2.9s1.74-1.88,2.65-2.77l2.62-2.44.19-.17c.45-.45.95-.84,1.44-1.25L40,30.5l1.48-1.2L43,28.2c1-.71,2-1.48,3.12-2.14l3.22-1.94a74.77,74.77,0,0,1,13.58-6c2.3-.85,4.7-1.39,7.05-2a35.91,35.91,0,0,1,3.57-.75Z"/><path class="cls-12" d="M9.73,81.77a114,114,0,0,1,4.18-13.51,125.42,125.42,0,0,1,5.72-13,88.37,88.37,0,0,1,7.46-12,69.16,69.16,0,0,1,4.56-5.42,50.14,50.14,0,0,1,5.25-4.74,60.22,60.22,0,0,0-9.39,10.47c-1.36,1.92-2.65,3.87-3.87,5.88s-2.34,4.07-3.42,6.16c-2.17,4.16-4.08,8.46-5.83,12.83-.87,2.18-1.7,4.38-2.47,6.6S10.4,79.51,9.73,81.77Z"/><path class="cls-13" d="M180.56,71.67a.92.92,0,0,1-.67-.26.9.9,0,0,1-.26-.68V46.34a.9.9,0,0,1,.26-.68.92.92,0,0,1,.67-.26h9.76a15.18,15.18,0,0,1,6.27,1.18,8.87,8.87,0,0,1,4,3.46,11.41,11.41,0,0,1,1.5,5.61q0,1.65,0,2.88c0,.83,0,1.78,0,2.86a12.46,12.46,0,0,1-1.49,5.78,8.06,8.06,0,0,1-3.86,3.39,15.47,15.47,0,0,1-6.21,1.11Zm5.78-5.4h4a6.19,6.19,0,0,0,2.68-.51,3.36,3.36,0,0,0,1.62-1.6,6.81,6.81,0,0,0,.58-2.85q.08-1.08.09-2c0-.57,0-1.15,0-1.73s0-1.21-.09-1.91A5.1,5.1,0,0,0,193.87,52a5.28,5.28,0,0,0-3.74-1.18h-3.79Z"/><path class="cls-14" d="M206,71.67a.93.93,0,0,1-.68-.26.9.9,0,0,1-.26-.68V46.34a.9.9,0,0,1,.26-.68.93.93,0,0,1,.68-.26h5a.89.89,0,0,1,.94.94V70.73a.89.89,0,0,1-.94.94Z"/><path class="cls-15" d="M225.8,72a14.54,14.54,0,0,1-6.13-1.18,9,9,0,0,1-4-3.45,11.31,11.31,0,0,1-1.56-5.54c0-1.07,0-2.21,0-3.43s0-2.37,0-3.47a10.7,10.7,0,0,1,1.58-5.4,9.08,9.08,0,0,1,4-3.38A14.69,14.69,0,0,1,225.8,45a16.49,16.49,0,0,1,5,.69,11.45,11.45,0,0,1,3.66,1.86,8.35,8.35,0,0,1,2.25,2.55,5.85,5.85,0,0,1,.81,2.74.6.6,0,0,1-.21.56.82.82,0,0,1-.58.23h-5.48a1.27,1.27,0,0,1-.62-.13,1.16,1.16,0,0,1-.35-.4A5.9,5.9,0,0,0,229.5,52a4.31,4.31,0,0,0-1.39-1.07,5.11,5.11,0,0,0-2.31-.45,4.79,4.79,0,0,0-3.36,1.13,5.05,5.05,0,0,0-1.33,3.6q-.11,3.23,0,6.53a5.27,5.27,0,0,0,1.39,3.79,4.85,4.85,0,0,0,3.38,1.16,6.14,6.14,0,0,0,2.53-.49,3.8,3.8,0,0,0,1.75-1.52,5,5,0,0,0,.63-2.64v-.72h-3.52a.94.94,0,0,1-.7-.28.92.92,0,0,1-.28-.69V57.52a1,1,0,0,1,1-1h9.45a.88.88,0,0,1,.68.28,1,1,0,0,1,.26.69V61.8a10.1,10.1,0,0,1-1.46,5.52,9.42,9.42,0,0,1-4.15,3.5A14.86,14.86,0,0,1,225.8,72Z"/><path class="cls-16" d="M242.91,71.67a.92.92,0,0,1-.67-.26.9.9,0,0,1-.26-.68V46.34a.9.9,0,0,1,.26-.68.92.92,0,0,1,.67-.26h5a.89.89,0,0,1,.94.94V70.73a.89.89,0,0,1-.94.94Z"/><path class="cls-17" d="M260.85,71.67a.91.91,0,0,1-.94-.94V51.29h-6.68a.86.86,0,0,1-.67-.28.93.93,0,0,1-.27-.66v-4a.91.91,0,0,1,.94-.94h20.19a.89.89,0,0,1,.94.94v4a1,1,0,0,1-.26.66.88.88,0,0,1-.68.28h-6.68V70.73a.89.89,0,0,1-.94.94Z"/><path class="cls-18" d="M273.61,71.67a.75.75,0,0,1-.54-.24.76.76,0,0,1-.25-.55,1.22,1.22,0,0,1,0-.34l8.82-24.09a1.46,1.46,0,0,1,.47-.73,1.42,1.42,0,0,1,1-.32h5.55a1.46,1.46,0,0,1,1,.32,1.53,1.53,0,0,1,.47.73l8.78,24.09a.77.77,0,0,1,.07.34.78.78,0,0,1-.24.55.8.8,0,0,1-.58.24h-4.62a1.14,1.14,0,0,1-.84-.28,1.41,1.41,0,0,1-.36-.51l-1.46-3.83h-10l-1.43,3.83a1.55,1.55,0,0,1-.33.51,1.21,1.21,0,0,1-.91.28Zm8.82-10h7l-3.53-9.91Z"/><path class="cls-19" d="M302.92,71.67a.89.89,0,0,1-.94-.94V46.34a.89.89,0,0,1,.94-.94h4.95a1,1,0,0,1,.66.26.92.92,0,0,1,.28.68V66h11.33a1,1,0,0,1,1,1v3.75a.89.89,0,0,1-.29.68,1,1,0,0,1-.69.26Z"/><path class="cls-20" d="M331.8,71.67a.75.75,0,0,1-.54-.24.76.76,0,0,1-.25-.55,1.22,1.22,0,0,1,0-.34l8.82-24.09a1.42,1.42,0,0,1,1.46-1.05h5.56a1.45,1.45,0,0,1,1,.32,1.53,1.53,0,0,1,.47.73l8.78,24.09a.77.77,0,0,1,.07.34.78.78,0,0,1-.24.55.8.8,0,0,1-.58.24h-4.62a1.14,1.14,0,0,1-.84-.28,1.41,1.41,0,0,1-.36-.51l-1.46-3.83h-10l-1.43,3.83a1.55,1.55,0,0,1-.33.51,1.2,1.2,0,0,1-.9.28Zm8.82-10h7l-3.53-9.91Z"/><path class="cls-21" d="M370.45,72a14.51,14.51,0,0,1-6.13-1.18,9,9,0,0,1-4-3.45,11.31,11.31,0,0,1-1.56-5.54c0-1.07,0-2.21,0-3.43s0-2.37,0-3.47a10.7,10.7,0,0,1,1.58-5.4,9.08,9.08,0,0,1,4-3.38A14.66,14.66,0,0,1,370.45,45a16.49,16.49,0,0,1,5,.69,11.45,11.45,0,0,1,3.66,1.86,8.35,8.35,0,0,1,2.25,2.55,6.1,6.1,0,0,1,.81,2.74.65.65,0,0,1-.21.56.82.82,0,0,1-.58.23h-5.48a1.27,1.27,0,0,1-.62-.13,1.16,1.16,0,0,1-.35-.4,5.9,5.9,0,0,0-.77-1.18,4.31,4.31,0,0,0-1.39-1.07,5.11,5.11,0,0,0-2.31-.45,4.79,4.79,0,0,0-3.36,1.13,5.05,5.05,0,0,0-1.33,3.6q-.11,3.23,0,6.53a5.27,5.27,0,0,0,1.39,3.79,4.83,4.83,0,0,0,3.38,1.16,6.14,6.14,0,0,0,2.53-.49,3.73,3.73,0,0,0,1.74-1.52,4.89,4.89,0,0,0,.64-2.64v-.72h-3.53a.94.94,0,0,1-.69-.28.92.92,0,0,1-.28-.69V57.52a1,1,0,0,1,1-1h9.46a.88.88,0,0,1,.68.28,1,1,0,0,1,.26.69V61.8a10.1,10.1,0,0,1-1.46,5.52,9.42,9.42,0,0,1-4.15,3.5A14.86,14.86,0,0,1,370.45,72Z"/><path class="cls-22" d="M387.56,71.67a.91.91,0,0,1-.94-.94V46.34a.91.91,0,0,1,.94-.94h17.53a.92.92,0,0,1,.67.26.9.9,0,0,1,.26.68v3.53a.91.91,0,0,1-.93.94h-12v5.06h11.14a.88.88,0,0,1,.68.28,1,1,0,0,1,.26.7v3.26a1,1,0,0,1-.26.66.88.88,0,0,1-.68.28H393.12v5.22h12.27a.89.89,0,0,1,.93.93v3.53a.9.9,0,0,1-.26.68.92.92,0,0,1-.67.26Z"/><path class="cls-23" d="M411.54,71.67a.91.91,0,0,1-.94-.94V46.34a.91.91,0,0,1,.94-.94h4a1.31,1.31,0,0,1,.92.28,1.9,1.9,0,0,1,.35.43L426,60.56V46.34a.89.89,0,0,1,.94-.94h4.5a.89.89,0,0,1,.94.94V70.73a1,1,0,0,1-.26.66.88.88,0,0,1-.68.28h-4a1.18,1.18,0,0,1-.89-.3c-.18-.2-.3-.34-.35-.41L417,57.07V70.73a.89.89,0,0,1-.94.94Z"/><path class="cls-24" d="M446.14,72a14.47,14.47,0,0,1-6.1-1.16,8.87,8.87,0,0,1-3.94-3.41,11.39,11.39,0,0,1-1.56-5.6c0-1,0-2.12,0-3.3s0-2.3,0-3.37a11.21,11.21,0,0,1,1.58-5.54,9.1,9.1,0,0,1,4-3.45A14.29,14.29,0,0,1,446.14,45a15.83,15.83,0,0,1,4.57.62,11.28,11.28,0,0,1,3.68,1.8,8.48,8.48,0,0,1,2.46,2.85,8.3,8.3,0,0,1,.92,3.77.62.62,0,0,1-.21.56.82.82,0,0,1-.58.23h-5.06a1.16,1.16,0,0,1-.75-.21,1.61,1.61,0,0,1-.46-.77,4.32,4.32,0,0,0-1.7-2.72,5.42,5.42,0,0,0-2.91-.73,4.55,4.55,0,0,0-3.27,1.14,5.48,5.48,0,0,0-1.31,3.81c-.07,2-.07,4.16,0,6.31a5.48,5.48,0,0,0,1.31,3.81,4.55,4.55,0,0,0,3.27,1.14,5.43,5.43,0,0,0,2.93-.75,4.18,4.18,0,0,0,1.68-2.7,1.34,1.34,0,0,1,.44-.77,1.24,1.24,0,0,1,.77-.21H457a.82.82,0,0,1,.58.23.63.63,0,0,1,.21.56,8.3,8.3,0,0,1-.92,3.77,8.39,8.39,0,0,1-2.46,2.85,11.5,11.5,0,0,1-3.68,1.81A16.19,16.19,0,0,1,446.14,72Z"/><path class="cls-25" d="M466.44,71.67a1,1,0,0,1-.66-.26.88.88,0,0,1-.28-.68V62.66L456.79,46.6c0-.07-.05-.14-.07-.2a.52.52,0,0,1,0-.21.75.75,0,0,1,.24-.54.79.79,0,0,1,.58-.25h4.7a1.34,1.34,0,0,1,.88.28,1.33,1.33,0,0,1,.39.51l5.4,9.68,5.41-9.68a1.81,1.81,0,0,1,.43-.51,1.33,1.33,0,0,1,.88-.28h4.69a.72.72,0,0,1,.57.25.76.76,0,0,1,.22.54,1.49,1.49,0,0,1,0,.21,1.94,1.94,0,0,1-.05.2l-8.75,16.06v8.07a.89.89,0,0,1-.94.94Z"/><path class="cls-26" d="M490.63,71.67a.93.93,0,0,1-.68-.26.9.9,0,0,1-.26-.68V46.34a.9.9,0,0,1,.26-.68.93.93,0,0,1,.68-.26h10.5a14,14,0,0,1,5.42,1,7.89,7.89,0,0,1,3.61,2.87,8.47,8.47,0,0,1,1.29,4.84,8.25,8.25,0,0,1-1.29,4.77,7.64,7.64,0,0,1-3.61,2.77,14.83,14.83,0,0,1-5.42.9h-4.46v8.22a.92.92,0,0,1-.28.68,1,1,0,0,1-.7.26Zm5.92-14.34h4.39a3.78,3.78,0,0,0,2.57-.82,3.14,3.14,0,0,0,1-2.52,3.59,3.59,0,0,0-.82-2.4,3.36,3.36,0,0,0-2.71-1h-4.39Z"/><path class="cls-27" d="M512.17,71.67a.75.75,0,0,1-.55-.24.78.78,0,0,1-.24-.55,1.79,1.79,0,0,1,0-.34l8.82-24.09a1.53,1.53,0,0,1,.47-.73,1.46,1.46,0,0,1,1-.32h5.55a1.42,1.42,0,0,1,1,.32,1.46,1.46,0,0,1,.47.73l8.78,24.09a.77.77,0,0,1,.08.34.78.78,0,0,1-.24.55.82.82,0,0,1-.59.24h-4.61a1.15,1.15,0,0,1-.85-.28,1.5,1.5,0,0,1-.35-.51l-1.47-3.83h-10L518,70.88a1.45,1.45,0,0,1-.34.51,1.17,1.17,0,0,1-.9.28Zm8.81-10h7l-3.52-9.91Z"/><path class="cls-28" d="M541.47,71.67a.91.91,0,0,1-.94-.94V46.34a.91.91,0,0,1,.94-.94h10.21a12,12,0,0,1,7.64,2.23A7.65,7.65,0,0,1,562.11,54a7.66,7.66,0,0,1-1.29,4.5,8.19,8.19,0,0,1-3.4,2.78l5.18,9.23a1,1,0,0,1,.11.41.78.78,0,0,1-.24.55.82.82,0,0,1-.58.24h-5a1.39,1.39,0,0,1-1-.36,2.83,2.83,0,0,1-.49-.65l-4.27-8.26h-3.87v8.33a.89.89,0,0,1-.94.94Zm5.78-14.56h4.35a3.67,3.67,0,0,0,2.65-.86,3.17,3.17,0,0,0,.88-2.37,3.33,3.33,0,0,0-.84-2.36,3.55,3.55,0,0,0-2.69-.9h-4.35Z"/><path class="cls-29" d="M567.4,71.67a.91.91,0,0,1-.94-.94V46.34a.91.91,0,0,1,.94-.94h4.73a1,1,0,0,1,.68.26.94.94,0,0,1,.26.68v8.33L580,46.11a1.81,1.81,0,0,1,.51-.46,1.58,1.58,0,0,1,1-.25h5.41a.72.72,0,0,1,.56.25.78.78,0,0,1,.23.54.7.7,0,0,1-.15.45l-9,11.33,9.68,12.46a.61.61,0,0,1,.15.45.76.76,0,0,1-.25.55.75.75,0,0,1-.54.24H582a1.54,1.54,0,0,1-1-.3,3,3,0,0,1-.47-.45l-7.43-9.27v9.08a.94.94,0,0,1-.26.68,1,1,0,0,1-.68.26Z"/><path class="cls-9" d="M190.17,86.11a2.25,2.25,0,0,1-.93-.72,1.93,1.93,0,0,1-.35-1.12h1.51a1,1,0,0,0,.3.68,1.09,1.09,0,0,0,.76.26,1.17,1.17,0,0,0,.78-.24.79.79,0,0,0,.28-.62.73.73,0,0,0-.19-.51,1.49,1.49,0,0,0-.48-.32c-.19-.07-.45-.16-.79-.25a8.89,8.89,0,0,1-1.11-.4,2,2,0,0,1-.73-.59,1.67,1.67,0,0,1-.31-1.06,1.89,1.89,0,0,1,.31-1.09,2,2,0,0,1,.88-.71,3.21,3.21,0,0,1,1.28-.24,2.82,2.82,0,0,1,1.77.52,2,2,0,0,1,.74,1.48h-1.54a.84.84,0,0,0-.31-.6,1.14,1.14,0,0,0-.76-.24,1,1,0,0,0-.66.21.78.78,0,0,0-.24.62.63.63,0,0,0,.18.46,1.27,1.27,0,0,0,.47.3,7.09,7.09,0,0,0,.77.27,9.78,9.78,0,0,1,1.12.4,2,2,0,0,1,.74.61,1.64,1.64,0,0,1,.31,1.05,2,2,0,0,1-.29,1,2.13,2.13,0,0,1-.85.77,2.94,2.94,0,0,1-1.34.28A3.27,3.27,0,0,1,190.17,86.11Z"/><path class="cls-9" d="M200.66,85.9a3.5,3.5,0,0,1-1.31-1.28,3.63,3.63,0,0,1-.48-1.86,3.58,3.58,0,0,1,.48-1.84,3.43,3.43,0,0,1,1.31-1.28,3.79,3.79,0,0,1,3.62,0,3.4,3.4,0,0,1,1.3,1.28,3.68,3.68,0,0,1,.47,1.84,3.72,3.72,0,0,1-.47,1.86,3.55,3.55,0,0,1-1.3,1.28,3.79,3.79,0,0,1-3.62,0Zm2.92-1.08a2,2,0,0,0,.76-.82,2.7,2.7,0,0,0,.27-1.24,2.65,2.65,0,0,0-.27-1.23,2.05,2.05,0,0,0-.76-.81,2.36,2.36,0,0,0-2.23,0,1.92,1.92,0,0,0-.76.81,2.65,2.65,0,0,0-.27,1.23,2.7,2.7,0,0,0,.27,1.24,1.89,1.89,0,0,0,.76.82,2.29,2.29,0,0,0,2.23,0Z"/><path class="cls-9" d="M215.45,79.28v1.13h-2.92v1.8h2.24v1.12h-2.24v3h-1.41v-7Z"/><path class="cls-9" d="M225.24,79.28v1.13h-1.87v5.88H222V80.41h-1.87V79.28Z"/><path class="cls-9" d="M239.66,79.28l-2,7H236l-1.32-5-1.37,5H231.7l-1.89-7h1.51l1.23,5.44L234,79.28h1.57l1.35,5.41,1.24-5.41Z"/><path class="cls-9" d="M248.89,85H246.1l-.46,1.34h-1.48l2.52-7h1.64l2.52,7h-1.48Zm-.38-1.12-1-2.93-1,2.93Z"/><path class="cls-9" d="M259.43,86.29l-1.55-2.73h-.66v2.73h-1.41v-7h2.63a3.11,3.11,0,0,1,1.39.28,2,2,0,0,1,.86.78,2.11,2.11,0,0,1,.28,1.09,2.07,2.07,0,0,1-.4,1.25,2.09,2.09,0,0,1-1.19.77l1.67,2.84Zm-2.21-3.79h1.17a1.22,1.22,0,0,0,.86-.27,1.07,1.07,0,0,0,.28-.77,1,1,0,0,0-.28-.75,1.22,1.22,0,0,0-.86-.27h-1.17Z"/><path class="cls-9" d="M267.68,80.41v1.76H270v1.12h-2.36v1.86h2.66v1.14h-4.07v-7h4.07v1.14Z"/><path class="cls-9" d="M283.15,86.11a2.25,2.25,0,0,1-.93-.72,1.87,1.87,0,0,1-.35-1.12h1.5a1,1,0,0,0,.31.68,1.08,1.08,0,0,0,.76.26,1.15,1.15,0,0,0,.77-.24.76.76,0,0,0,.28-.62.69.69,0,0,0-.19-.51,1.35,1.35,0,0,0-.47-.32c-.2-.07-.46-.16-.79-.25a8.89,8.89,0,0,1-1.11-.4,2,2,0,0,1-.74-.59,1.73,1.73,0,0,1-.3-1.06,1.89,1.89,0,0,1,.31-1.09,2,2,0,0,1,.87-.71,3.3,3.3,0,0,1,1.29-.24,2.79,2.79,0,0,1,1.76.52,2,2,0,0,1,.75,1.48h-1.55a.8.8,0,0,0-.3-.6,1.15,1.15,0,0,0-.76-.24,1,1,0,0,0-.66.21.79.79,0,0,0-.25.62.64.64,0,0,0,.19.46,1.23,1.23,0,0,0,.46.3q.28.12.78.27a9.78,9.78,0,0,1,1.12.4,2.14,2.14,0,0,1,.74.61,1.64,1.64,0,0,1,.31,1.05,2.05,2.05,0,0,1-.29,1,2.13,2.13,0,0,1-.85.77,3,3,0,0,1-1.34.28A3.27,3.27,0,0,1,283.15,86.11Z"/><path class="cls-9" d="M293.63,85.9a3.47,3.47,0,0,1-1.3-1.28,3.63,3.63,0,0,1-.48-1.86,3.58,3.58,0,0,1,.48-1.84,3.4,3.4,0,0,1,1.3-1.28,3.81,3.81,0,0,1,3.63,0,3.44,3.44,0,0,1,1.29,1.28,3.58,3.58,0,0,1,.48,1.84,3.63,3.63,0,0,1-.48,1.86,3.47,3.47,0,0,1-1.3,1.28,3.79,3.79,0,0,1-3.62,0Zm2.93-1.08a1.93,1.93,0,0,0,.75-.82,2.7,2.7,0,0,0,.27-1.24,2.65,2.65,0,0,0-.27-1.23,2,2,0,0,0-.75-.81,2.27,2.27,0,0,0-1.12-.28,2.3,2.3,0,0,0-1.12.28,2,2,0,0,0-.76.81,2.65,2.65,0,0,0-.27,1.23,2.7,2.7,0,0,0,.27,1.24,2,2,0,0,0,.76.82,2.2,2.2,0,0,0,1.12.29A2.17,2.17,0,0,0,296.56,84.82Z"/><path class="cls-9" d="M305.5,85.18h2.31v1.11H304.1v-7h1.4Z"/><path class="cls-9" d="M314.11,79.28v4.34a1.49,1.49,0,0,0,.38,1.09,1.38,1.38,0,0,0,1,.38,1.43,1.43,0,0,0,1.06-.38,1.53,1.53,0,0,0,.37-1.09V79.28h1.42v4.33a2.78,2.78,0,0,1-.39,1.51,2.46,2.46,0,0,1-1,.93,3.24,3.24,0,0,1-1.44.31,3.15,3.15,0,0,1-1.42-.31,2.39,2.39,0,0,1-1-.93,2.87,2.87,0,0,1-.37-1.51V79.28Z"/><path class="cls-9" d="M328.53,79.28v1.13h-1.87v5.88h-1.41V80.41h-1.87V79.28Z"/><path class="cls-9" d="M335,79.28v7h-1.41v-7Z"/><path class="cls-9" d="M341.83,85.9a3.57,3.57,0,0,1-1.31-1.28,3.63,3.63,0,0,1-.48-1.86,3.58,3.58,0,0,1,.48-1.84,3.5,3.5,0,0,1,1.31-1.28,3.79,3.79,0,0,1,3.62,0,3.4,3.4,0,0,1,1.3,1.28,3.58,3.58,0,0,1,.48,1.84,3.63,3.63,0,0,1-.48,1.86,3.47,3.47,0,0,1-1.3,1.28,3.79,3.79,0,0,1-3.62,0Zm2.93-1.08a1.93,1.93,0,0,0,.75-.82,2.7,2.7,0,0,0,.27-1.24,2.65,2.65,0,0,0-.27-1.23,2,2,0,0,0-.75-.81,2.3,2.3,0,0,0-1.12-.28,2.27,2.27,0,0,0-1.12.28,1.92,1.92,0,0,0-.76.81,2.65,2.65,0,0,0-.27,1.23,2.7,2.7,0,0,0,.27,1.24,1.89,1.89,0,0,0,.76.82,2.17,2.17,0,0,0,1.12.29A2.2,2.2,0,0,0,344.76,84.82Z"/><path class="cls-9" d="M358.29,86.29h-1.41l-3.18-4.81v4.81h-1.41v-7h1.41l3.18,4.82V79.27h1.41Z"/><path class="cls-9" d="M364.8,86.11a2.25,2.25,0,0,1-.93-.72,1.87,1.87,0,0,1-.35-1.12H365a1,1,0,0,0,.31.68,1.09,1.09,0,0,0,.76.26,1.13,1.13,0,0,0,.77-.24.76.76,0,0,0,.28-.62.69.69,0,0,0-.19-.51,1.35,1.35,0,0,0-.47-.32c-.19-.07-.46-.16-.79-.25a8.89,8.89,0,0,1-1.11-.4,2,2,0,0,1-.74-.59,1.73,1.73,0,0,1-.3-1.06,1.89,1.89,0,0,1,.31-1.09,2,2,0,0,1,.87-.71,3.3,3.3,0,0,1,1.29-.24,2.79,2.79,0,0,1,1.76.52,2,2,0,0,1,.75,1.48H367a.8.8,0,0,0-.3-.6,1.15,1.15,0,0,0-.76-.24,1,1,0,0,0-.66.21.79.79,0,0,0-.25.62.64.64,0,0,0,.19.46,1.23,1.23,0,0,0,.46.3q.28.12.78.27a9.78,9.78,0,0,1,1.12.4,2.14,2.14,0,0,1,.74.61,1.64,1.64,0,0,1,.31,1.05,2.05,2.05,0,0,1-.29,1,2.13,2.13,0,0,1-.85.77,2.94,2.94,0,0,1-1.34.28A3.27,3.27,0,0,1,364.8,86.11Z"/><path class="cls-9" d="M375.38,84.81l-1.18,2.83h-.9l.65-2.83Z"/><path class="cls-9" d="M387.92,86.11a2.25,2.25,0,0,1-.93-.72,1.93,1.93,0,0,1-.35-1.12h1.51a1,1,0,0,0,.3.68,1.09,1.09,0,0,0,.76.26A1.17,1.17,0,0,0,390,85a.79.79,0,0,0,.28-.62.73.73,0,0,0-.19-.51,1.49,1.49,0,0,0-.48-.32c-.19-.07-.45-.16-.79-.25a10.26,10.26,0,0,1-1.11-.4,2,2,0,0,1-.73-.59,1.67,1.67,0,0,1-.31-1.06,1.89,1.89,0,0,1,.31-1.09,2,2,0,0,1,.88-.71,3.21,3.21,0,0,1,1.28-.24,2.82,2.82,0,0,1,1.77.52,2,2,0,0,1,.75,1.48H390.1a.84.84,0,0,0-.31-.6,1.14,1.14,0,0,0-.76-.24,1,1,0,0,0-.66.21.78.78,0,0,0-.24.62.63.63,0,0,0,.18.46,1.27,1.27,0,0,0,.47.3,7.09,7.09,0,0,0,.77.27,9.78,9.78,0,0,1,1.12.4,2,2,0,0,1,.74.61,1.64,1.64,0,0,1,.32,1.05,2,2,0,0,1-.3,1,2.13,2.13,0,0,1-.85.77,2.94,2.94,0,0,1-1.34.28A3.27,3.27,0,0,1,387.92,86.11Z"/><path class="cls-9" d="M398.37,80.41v1.76h2.36v1.12h-2.36v1.86H401v1.14H397v-7H401v1.14Z"/><path class="cls-9" d="M410.63,85h-2.8l-.46,1.34H405.9l2.52-7h1.64l2.52,7h-1.49Zm-.38-1.12-1-2.93-1,2.93Z"/><path class="cls-9" d="M425.19,79.28v7h-1.41V81.73l-1.88,4.56h-1.06L419,81.73v4.56h-1.41v-7h1.6l2.23,5.21,2.23-5.21Z"/><path class="cls-9" d="M432,85.18h2.31v1.11H430.6v-7H432Z"/><path class="cls-9" d="M440.64,80.41v1.76H443v1.12h-2.36v1.86h2.66v1.14h-4.07v-7h4.07v1.14Z"/><path class="cls-9" d="M449.7,86.11a2.13,2.13,0,0,1-.93-.72,1.94,1.94,0,0,1-.36-1.12h1.51a.93.93,0,0,0,.31.68,1.06,1.06,0,0,0,.76.26,1.16,1.16,0,0,0,.77-.24.76.76,0,0,0,.28-.62.69.69,0,0,0-.19-.51,1.49,1.49,0,0,0-.48-.32c-.19-.07-.45-.16-.79-.25a10.26,10.26,0,0,1-1.11-.4,2,2,0,0,1-.73-.59,1.73,1.73,0,0,1-.31-1.06,1.89,1.89,0,0,1,.32-1.09,1.93,1.93,0,0,1,.87-.71,3.23,3.23,0,0,1,1.29-.24,2.79,2.79,0,0,1,1.76.52,2,2,0,0,1,.75,1.48h-1.55a.78.78,0,0,0-.31-.6,1.13,1.13,0,0,0-.75-.24,1,1,0,0,0-.66.21.76.76,0,0,0-.25.62.6.6,0,0,0,.19.46,1.15,1.15,0,0,0,.46.3,6.66,6.66,0,0,0,.78.27,9.53,9.53,0,0,1,1.11.4,2.09,2.09,0,0,1,.75.61,1.7,1.7,0,0,1,.31,1.05,2.05,2.05,0,0,1-.29,1,2.16,2.16,0,0,1-.86.77,2.9,2.9,0,0,1-1.33.28A3.27,3.27,0,0,1,449.7,86.11Z"/><path class="cls-9" d="M459.83,86.11a2.15,2.15,0,0,1-.92-.72,1.94,1.94,0,0,1-.36-1.12h1.51a.93.93,0,0,0,.31.68,1.06,1.06,0,0,0,.76.26,1.16,1.16,0,0,0,.77-.24.76.76,0,0,0,.28-.62.69.69,0,0,0-.19-.51,1.49,1.49,0,0,0-.48-.32c-.19-.07-.45-.16-.79-.25a10.26,10.26,0,0,1-1.11-.4,2,2,0,0,1-.73-.59,1.73,1.73,0,0,1-.31-1.06,1.89,1.89,0,0,1,.32-1.09,1.93,1.93,0,0,1,.87-.71,3.23,3.23,0,0,1,1.29-.24,2.79,2.79,0,0,1,1.76.52,2,2,0,0,1,.75,1.48H462a.78.78,0,0,0-.31-.6,1.13,1.13,0,0,0-.75-.24,1,1,0,0,0-.66.21.76.76,0,0,0-.25.62.6.6,0,0,0,.19.46,1.15,1.15,0,0,0,.46.3,6.66,6.66,0,0,0,.78.27,9.53,9.53,0,0,1,1.11.4,2.09,2.09,0,0,1,.75.61,1.7,1.7,0,0,1,.31,1.05,2.05,2.05,0,0,1-.29,1,2.16,2.16,0,0,1-.86.77,2.9,2.9,0,0,1-1.33.28A3.35,3.35,0,0,1,459.83,86.11Z"/><path class="cls-9" d="M476.69,80.41v1.76h2.36v1.12h-2.36v1.86h2.67v1.14h-4.07v-7h4.07v1.14Z"/><path class="cls-9" d="M488.85,86.29l-1.52-2.36L486,86.29h-1.59l2.21-3.54-2.24-3.47H486l1.52,2.35,1.36-2.35h1.59l-2.2,3.52,2.24,3.49Z"/><path class="cls-9" d="M500.41,82.5a1.89,1.89,0,0,1-.83.8,3.06,3.06,0,0,1-1.43.3H497v2.69h-1.4v-7h2.58a3.06,3.06,0,0,1,1.38.28,1.91,1.91,0,0,1,.86.77,2.2,2.2,0,0,1,.29,1.12A2.16,2.16,0,0,1,500.41,82.5ZM499,82.2a1,1,0,0,0,.28-.75c0-.69-.38-1-1.14-1H497v2h1.12A1.24,1.24,0,0,0,499,82.2Z"/><path class="cls-9" d="M507.1,80.41v1.76h2.36v1.12H507.1v1.86h2.66v1.14h-4.07v-7h4.07v1.14Z"/><path class="cls-9" d="M518.68,86.29l-1.55-2.73h-.66v2.73h-1.41v-7h2.63a3.08,3.08,0,0,1,1.39.28,2,2,0,0,1,.86.78,2.11,2.11,0,0,1,.29,1.09,2.08,2.08,0,0,1-.41,1.25,2,2,0,0,1-1.19.77l1.68,2.84Zm-2.21-3.79h1.17a1.2,1.2,0,0,0,.86-.27,1,1,0,0,0,.28-.77,1,1,0,0,0-.28-.75,1.2,1.2,0,0,0-.86-.27h-1.17Z"/><path class="cls-9" d="M526.93,79.28v7h-1.41v-7Z"/><path class="cls-9" d="M533.74,80.41v1.76h2.36v1.12h-2.36v1.86h2.67v1.14h-4.07v-7h4.07v1.14Z"/><path class="cls-9" d="M547.7,86.29h-1.41l-3.18-4.81v4.81H541.7v-7h1.41l3.18,4.82V79.27h1.41Z"/><path class="cls-9" d="M553.23,80.92a3.35,3.35,0,0,1,1.28-1.28,3.65,3.65,0,0,1,1.81-.45,3.57,3.57,0,0,1,2.06.6,3.13,3.13,0,0,1,1.24,1.67H558a1.69,1.69,0,0,0-.68-.76,2,2,0,0,0-1-.25,2.09,2.09,0,0,0-1.09.29,1.94,1.94,0,0,0-.74.81,2.64,2.64,0,0,0-.27,1.22,2.61,2.61,0,0,0,.27,1.22,1.91,1.91,0,0,0,.74.82,2.09,2.09,0,0,0,1.09.29,2,2,0,0,0,1-.26,1.69,1.69,0,0,0,.68-.76h1.62a3.09,3.09,0,0,1-1.23,1.67,3.6,3.6,0,0,1-2.07.6,3.56,3.56,0,0,1-1.81-.46,3.26,3.26,0,0,1-1.28-1.27,4,4,0,0,1,0-3.7Z"/><path class="cls-9" d="M566.25,80.41v1.76h2.36v1.12h-2.36v1.86h2.67v1.14h-4.07v-7h4.07v1.14Z"/><path class="cls-9" d="M575.31,86.11a2.25,2.25,0,0,1-.93-.72,1.93,1.93,0,0,1-.35-1.12h1.51a1,1,0,0,0,.3.68,1.09,1.09,0,0,0,.76.26,1.17,1.17,0,0,0,.78-.24.79.79,0,0,0,.28-.62.73.73,0,0,0-.19-.51,1.49,1.49,0,0,0-.48-.32c-.19-.07-.45-.16-.79-.25a10.26,10.26,0,0,1-1.11-.4,2,2,0,0,1-.73-.59,1.67,1.67,0,0,1-.31-1.06,1.89,1.89,0,0,1,.31-1.09,2,2,0,0,1,.88-.71,3.21,3.21,0,0,1,1.28-.24,2.82,2.82,0,0,1,1.77.52,2,2,0,0,1,.75,1.48h-1.55a.84.84,0,0,0-.31-.6,1.14,1.14,0,0,0-.76-.24,1,1,0,0,0-.66.21.78.78,0,0,0-.24.62.63.63,0,0,0,.18.46,1.27,1.27,0,0,0,.47.3,7.09,7.09,0,0,0,.77.27,9.78,9.78,0,0,1,1.12.4,2,2,0,0,1,.74.61,1.64,1.64,0,0,1,.32,1.05,2,2,0,0,1-.3,1,2.06,2.06,0,0,1-.85.77,2.94,2.94,0,0,1-1.34.28A3.27,3.27,0,0,1,575.31,86.11Z"/></svg>